<?xml version="1.0" encoding="utf-8"?>
<!-- Generator: Adobe Illustrator 25.2.1, SVG Export Plug-In . SVG Version: 6.00 Build 0)  -->
<svg version="1.1" id="Capa_1" xmlns="http://www.w3.org/2000/svg" xmlns:xlink="http://www.w3.org/1999/xlink" x="0px" y="0px"
	 viewBox="0 0 206.9 119.3" style="enable-background:new 0 0 206.9 119.3;" xml:space="preserve">
<style type="text/css">
	.st0{fill:#005CA8;}
	.st1{fill:#2A3375;}
	.st2{fill:#FFD100;}
	.st3{fill:#283474;}
	.st4{fill:#FFFFFF;}
	.st5{clip-path:url(#SVGID_2_);}
	.st6{clip-path:url(#SVGID_4_);fill:#FFFFFF;}
	.st7{clip-path:url(#SVGID_4_);fill:#FFD405;}
	.st8{clip-path:url(#SVGID_6_);}
	.st9{clip-path:url(#SVGID_8_);fill:#FFFFFF;}
	.st10{clip-path:url(#SVGID_8_);fill:#FFD405;}
	.st11{clip-path:url(#SVGID_10_);}
	.st12{clip-path:url(#SVGID_12_);fill:#FFFFFF;}
	.st13{clip-path:url(#SVGID_14_);fill:#FFFFFF;}
	.st14{clip-path:url(#SVGID_18_);}
	.st15{clip-path:url(#SVGID_22_);}
	.st16{clip-path:url(#SVGID_24_);fill:#FFFFFF;}
	.st17{clip-path:url(#SVGID_28_);fill:none;stroke:#1155CC;stroke-miterlimit:10;}
	.st18{clip-path:url(#SVGID_28_);fill:none;stroke:#000000;stroke-miterlimit:10;}
	.st19{clip-path:url(#SVGID_30_);}
	.st20{clip-path:url(#SVGID_34_);}
	.st21{clip-path:url(#SVGID_36_);fill:#FFFFFF;}
	.st22{clip-path:url(#SVGID_38_);}
	.st23{clip-path:url(#SVGID_42_);}
	.st24{fill:#FFE600;}
	.st25{fill:#2D3277;}
	.st26{fill:none;stroke:#FFFFFF;stroke-width:3;stroke-linecap:round;stroke-miterlimit:10;}
	.st27{fill:#005DA9;}
	.st28{fill:#FFD700;}
	.st29{fill-rule:evenodd;clip-rule:evenodd;fill:#FFD700;}
	.st30{fill-rule:evenodd;clip-rule:evenodd;fill:#FFFFFF;}
	.st31{fill:#004BA3;}
	.st32{opacity:0.75;}
	.st33{fill:#3D3D3D;}
	.st34{fill:#232330;}
	.st35{opacity:0.5;}
	.st36{fill:#FF9B15;}
	.st37{fill:#BDBDBD;}
	.st38{fill:#DA3838;}
	.st39{opacity:0.53;fill:#FFFFFF;}
	.st40{fill:#767676;}
	.st41{fill:none;}
	.st42{opacity:0.5;fill:#FFFFFF;}
	.st43{opacity:0.5;fill:#BDBDBD;}
	.st44{fill-rule:evenodd;clip-rule:evenodd;fill:#005CA8;}
	.st45{clip-path:url(#SVGID_46_);}
	.st46{clip-path:url(#SVGID_48_);fill:#005CA9;}
	.st47{clip-path:url(#SVGID_48_);fill:#FFFFFF;}
	.st48{clip-path:url(#SVGID_48_);fill:#FFD500;}
	.st49{fill-rule:evenodd;clip-rule:evenodd;fill:url(#SVGID_49_);}
	.st50{fill:#0C419A;}
	.st51{fill:none;stroke:#878787;stroke-width:0.75;stroke-miterlimit:10;}
	.st52{clip-path:url(#SVGID_51_);}
	.st53{clip-path:url(#SVGID_53_);fill:#FFFFFF;}
	.st54{clip-path:url(#SVGID_53_);fill:#FFD405;}
	.st55{fill:#FBC30F;}
	.st56{clip-path:url(#SVGID_55_);}
	.st57{clip-path:url(#SVGID_57_);fill:#005CA9;}
	.st58{clip-path:url(#SVGID_57_);fill:#FFFFFF;}
	.st59{clip-path:url(#SVGID_57_);fill:#FFD500;}
	.st60{fill-rule:evenodd;clip-rule:evenodd;fill:url(#SVGID_58_);}
</style>
<g>
	<path class="st29" d="M147.1,103.4l37.3-2.1c2.8-12.9,3.3-24.4,2.1-34.3l-36.6,14C150.1,87.7,149.3,95.2,147.1,103.4L147.1,103.4z
		 M43.2,58.4l-2.8-4.3C25.3,69.3,12.9,88.9,5.8,112.7C13.2,89,27,70.9,43.2,58.4L43.2,58.4z M52.8,51.8l-3.3-6.1
		c-1.3,1.1-2.5,2.1-3.8,3.3l3,5.4C50.2,53.5,51.5,52.6,52.8,51.8L52.8,51.8z M62.4,46.7l-3.7-8c-1.2,0.8-2.4,1.7-3.6,2.6l3.4,7.3
		C59.8,48,61.1,47.3,62.4,46.7L62.4,46.7z M73.7,42.2l-1.9-11.6c-2.1,1.1-4.2,2.3-6.3,3.6l2.8,9.9C70.1,43.4,71.9,42.8,73.7,42.2
		L73.7,42.2z M83.4,39.6l0.4-14.6c-2.1,0.9-4.3,1.8-6.4,2.8l1.2,13C80.2,40.3,81.8,39.9,83.4,39.6L83.4,39.6z M94.4,38l4.2-18
		c-2.7,0.7-5.4,1.5-8.2,2.5l-1.1,16.1C91.1,38.3,92.8,38.1,94.4,38L94.4,38z M106.7,38l9.1-21.2c-3.7,0.4-7.4,0.9-11.2,1.7
		l-4.9,19.2C102.1,37.7,104.4,37.8,106.7,38L106.7,38z M123.2,41.9L140.7,18c-6.1-1.2-12.6-1.7-19.2-1.5l-9.6,22.2
		C115.9,39.4,119.7,40.5,123.2,41.9L123.2,41.9z M139.6,53.2L167.1,30c-6-4.9-13.1-8.4-20.8-10.7l-18.9,24.4
		C132,46.1,136.2,49.3,139.6,53.2L139.6,53.2z M149.5,75.8l36-14.7c-2.5-11.4-7.6-20.6-14.5-27.6l-28.5,23.4
		C146,62.1,148.5,68.4,149.5,75.8L149.5,75.8z"/>
	<path class="st30" d="M198.9,108C223.5-43.8,33.5-12.1,6.8,99.4C42.6-7.1,216.2-29.2,188.7,108.6l-103.5,5.7l113,0.3L198.9,108
		L198.9,108z"/>
</g>
</svg>
